<svg xmlns="http://www.w3.org/2000/svg" version="1.1" xmlns:xlink="http://www.w3.org/1999/xlink" xmlns:svgjs="http://svgjs.dev/svgjs" width="1440" height="560" preserveAspectRatio="none" viewBox="0 0 1440 560"><g mask="url(&quot;#SvgjsMask1000&quot;)" fill="none"><rect width="1440" height="560" x="0" y="0" fill="#0e2a47"></rect><path d="M-92.19 404.48L-92.19 404.48" stroke="#132e65" stroke-width="1.5"></path><path d="M-92.19 404.48L-38.65 490.58" stroke="#132e65" stroke-width="1.5"></path><path d="M-92.19 404.48L57.41 377.64" stroke="#132e65" stroke-width="1.5"></path><path d="M-92.19 404.48L64.37 531.35" stroke="#132e65" stroke-width="1.5"></path><path d="M-92.19 404.48L-51.19 657.25" stroke="#132e65" stroke-width="1.5"></path><path d="M-92.19 404.48L209.79 382.57" stroke="#132e65" stroke-width="1.5"></path><path d="M-38.65 490.58L-38.65 490.58" stroke="#132e65" stroke-width="1.5"></path><path d="M-38.65 490.58L64.37 531.35" stroke="#132e65" stroke-width="1.5"></path><path d="M-38.65 490.58L57.41 377.64" stroke="#132e65" stroke-width="1.5"></path><path d="M-51.19 657.25L-51.19 657.25" stroke="#132e65" stroke-width="1.5"></path><path d="M-51.19 657.25L72.4 690.59" stroke="#132e65" stroke-width="1.5"></path><path d="M-51.19 657.25L-38.65 490.58" stroke="#132e65" stroke-width="1.5"></path><path d="M57.41 377.64L57.41 377.64" stroke="#132e65" stroke-width="1.5"></path><path d="M57.41 377.64L209.79 382.57" stroke="#132e65" stroke-width="1.5"></path><path d="M57.41 377.64L64.37 531.35" stroke="#132e65" stroke-width="1.5"></path><path d="M64.37 531.35L64.37 531.35" stroke="#132e65" stroke-width="1.5"></path><path d="M72.4 690.59L72.4 690.59" stroke="#132e65" stroke-width="1.5"></path><path d="M72.4 690.59L64.37 531.35" stroke="#132e65" stroke-width="1.5"></path><path d="M72.4 690.59L234.03 668.99" stroke="#132e65" stroke-width="1.5"></path><path d="M72.4 690.59L-38.65 490.58" stroke="#132e65" stroke-width="1.5"></path><path d="M72.4 690.59L243.2 510.96" stroke="#132e65" stroke-width="1.5"></path><path d="M72.4 690.59L341.75 696.66" stroke="#132e65" stroke-width="1.5"></path><path d="M209.79 382.57L209.79 382.57" stroke="#132e65" stroke-width="1.5"></path><path d="M209.79 382.57L243.2 510.96" stroke="#132e65" stroke-width="1.5"></path><path d="M209.79 382.57L380.39 408.9" stroke="#132e65" stroke-width="1.5"></path><path d="M209.79 382.57L64.37 531.35" stroke="#132e65" stroke-width="1.5"></path><path d="M209.79 382.57L340.34 550.5" stroke="#132e65" stroke-width="1.5"></path><path d="M243.2 510.96L243.2 510.96" stroke="#132e65" stroke-width="1.5"></path><path d="M243.2 510.96L340.34 550.5" stroke="#132e65" stroke-width="1.5"></path><path d="M243.2 510.96L234.03 668.99" stroke="#132e65" stroke-width="1.5"></path><path d="M234.03 668.99L234.03 668.99" stroke="#132e65" stroke-width="1.5"></path><path d="M234.03 668.99L341.75 696.66" stroke="#132e65" stroke-width="1.5"></path><path d="M234.03 668.99L340.34 550.5" stroke="#132e65" stroke-width="1.5"></path><path d="M380.39 408.9L380.39 408.9" stroke="#132e65" stroke-width="1.5"></path><path d="M380.39 408.9L500.09 491.49" stroke="#132e65" stroke-width="1.5"></path><path d="M380.39 408.9L340.34 550.5" stroke="#132e65" stroke-width="1.5"></path><path d="M340.34 550.5L340.34 550.5" stroke="#132e65" stroke-width="1.5"></path><path d="M340.34 550.5L341.75 696.66" stroke="#132e65" stroke-width="1.5"></path><path d="M341.75 696.66L341.75 696.66" stroke="#132e65" stroke-width="1.5"></path><path d="M341.75 696.66L529 662.31" stroke="#132e65" stroke-width="1.5"></path><path d="M529.7 402.62L529.7 402.62" stroke="#132e65" stroke-width="1.5"></path><path d="M529.7 402.62L500.09 491.49" stroke="#132e65" stroke-width="1.5"></path><path d="M529.7 402.62L380.39 408.9" stroke="#132e65" stroke-width="1.5"></path><path d="M529.7 402.62L643.04 502.53" stroke="#132e65" stroke-width="1.5"></path><path d="M500.09 491.49L500.09 491.49" stroke="#132e65" stroke-width="1.5"></path><path d="M500.09 491.49L643.04 502.53" stroke="#132e65" stroke-width="1.5"></path><path d="M529 662.31L529 662.31" stroke="#132e65" stroke-width="1.5"></path><path d="M529 662.31L500.09 491.49" stroke="#132e65" stroke-width="1.5"></path><path d="M529 662.31L711.99 659.77" stroke="#132e65" stroke-width="1.5"></path><path d="M675.83 236.28L675.83 236.28" stroke="#132e65" stroke-width="1.5"></path><path d="M675.83 236.28L682.9 348.74" stroke="#132e65" stroke-width="1.5"></path><path d="M675.83 236.28L817.57 219.46" stroke="#132e65" stroke-width="1.5"></path><path d="M682.9 348.74L682.9 348.74" stroke="#132e65" stroke-width="1.5"></path><path d="M682.9 348.74L816.29 364.67" stroke="#132e65" stroke-width="1.5"></path><path d="M682.9 348.74L643.04 502.53" stroke="#132e65" stroke-width="1.5"></path><path d="M682.9 348.74L529.7 402.62" stroke="#132e65" stroke-width="1.5"></path><path d="M682.9 348.74L817.57 219.46" stroke="#132e65" stroke-width="1.5"></path><path d="M682.9 348.74L500.09 491.49" stroke="#132e65" stroke-width="1.5"></path><path d="M643.04 502.53L643.04 502.53" stroke="#132e65" stroke-width="1.5"></path><path d="M643.04 502.53L711.99 659.77" stroke="#132e65" stroke-width="1.5"></path><path d="M643.04 502.53L529 662.31" stroke="#132e65" stroke-width="1.5"></path><path d="M711.99 659.77L711.99 659.77" stroke="#132e65" stroke-width="1.5"></path><path d="M711.99 659.77L794.99 662.75" stroke="#132e65" stroke-width="1.5"></path><path d="M711.99 659.77L981.36 653.41" stroke="#132e65" stroke-width="1.5"></path><path d="M711.99 659.77L500.09 491.49" stroke="#132e65" stroke-width="1.5"></path><path d="M817.57 219.46L817.57 219.46" stroke="#132e65" stroke-width="1.5"></path><path d="M817.57 219.46L816.29 364.67" stroke="#132e65" stroke-width="1.5"></path><path d="M816.29 364.67L816.29 364.67" stroke="#132e65" stroke-width="1.5"></path><path d="M816.29 364.67L991.29 345.22" stroke="#132e65" stroke-width="1.5"></path><path d="M794.99 662.75L794.99 662.75" stroke="#132e65" stroke-width="1.5"></path><path d="M794.99 662.75L981.36 653.41" stroke="#132e65" stroke-width="1.5"></path><path d="M794.99 662.75L643.04 502.53" stroke="#132e65" stroke-width="1.5"></path><path d="M1005.15 -78.37L1005.15 -78.37" stroke="#132e65" stroke-width="1.5"></path><path d="M1005.15 -78.37L1111.07 39.3" stroke="#132e65" stroke-width="1.5"></path><path d="M1005.15 -78.37L1122.67 188.38" stroke="#132e65" stroke-width="1.5"></path><path d="M1005.15 -78.37L1288.99 83.79" stroke="#132e65" stroke-width="1.5"></path><path d="M1005.15 -78.37L977.16 256.83" stroke="#132e65" stroke-width="1.5"></path><path d="M977.16 256.83L977.16 256.83" stroke="#132e65" stroke-width="1.5"></path><path d="M977.16 256.83L991.29 345.22" stroke="#132e65" stroke-width="1.5"></path><path d="M977.16 256.83L1122.67 188.38" stroke="#132e65" stroke-width="1.5"></path><path d="M977.16 256.83L817.57 219.46" stroke="#132e65" stroke-width="1.5"></path><path d="M991.29 345.22L991.29 345.22" stroke="#132e65" stroke-width="1.5"></path><path d="M991.29 345.22L1105.75 364.12" stroke="#132e65" stroke-width="1.5"></path><path d="M991.29 345.22L1006.92 523.46" stroke="#132e65" stroke-width="1.5"></path><path d="M991.29 345.22L1122.67 188.38" stroke="#132e65" stroke-width="1.5"></path><path d="M1006.92 523.46L1006.92 523.46" stroke="#132e65" stroke-width="1.5"></path><path d="M1006.92 523.46L1117.44 516.36" stroke="#132e65" stroke-width="1.5"></path><path d="M1006.92 523.46L981.36 653.41" stroke="#132e65" stroke-width="1.5"></path><path d="M1006.92 523.46L1137.07 644.8" stroke="#132e65" stroke-width="1.5"></path><path d="M981.36 653.41L981.36 653.41" stroke="#132e65" stroke-width="1.5"></path><path d="M981.36 653.41L1137.07 644.8" stroke="#132e65" stroke-width="1.5"></path><path d="M1111.07 39.3L1111.07 39.3" stroke="#132e65" stroke-width="1.5"></path><path d="M1111.07 39.3L1122.67 188.38" stroke="#132e65" stroke-width="1.5"></path><path d="M1122.67 188.38L1122.67 188.38" stroke="#132e65" stroke-width="1.5"></path><path d="M1122.67 188.38L1260.55 197.75" stroke="#132e65" stroke-width="1.5"></path><path d="M1122.67 188.38L1105.75 364.12" stroke="#132e65" stroke-width="1.5"></path><path d="M1122.67 188.38L1288.99 83.79" stroke="#132e65" stroke-width="1.5"></path><path d="M1105.75 364.12L1105.75 364.12" stroke="#132e65" stroke-width="1.5"></path><path d="M1105.75 364.12L1117.44 516.36" stroke="#132e65" stroke-width="1.5"></path><path d="M1105.75 364.12L977.16 256.83" stroke="#132e65" stroke-width="1.5"></path><path d="M1105.75 364.12L1006.92 523.46" stroke="#132e65" stroke-width="1.5"></path><path d="M1105.75 364.12L1307.77 354.12" stroke="#132e65" stroke-width="1.5"></path><path d="M1117.44 516.36L1117.44 516.36" stroke="#132e65" stroke-width="1.5"></path><path d="M1117.44 516.36L1137.07 644.8" stroke="#132e65" stroke-width="1.5"></path><path d="M1117.44 516.36L1292.6 527.67" stroke="#132e65" stroke-width="1.5"></path><path d="M1117.44 516.36L981.36 653.41" stroke="#132e65" stroke-width="1.5"></path><path d="M1117.44 516.36L991.29 345.22" stroke="#132e65" stroke-width="1.5"></path><path d="M1137.07 644.8L1137.07 644.8" stroke="#132e65" stroke-width="1.5"></path><path d="M1137.07 644.8L1262.57 704.62" stroke="#132e65" stroke-width="1.5"></path><path d="M1288.99 83.79L1288.99 83.79" stroke="#132e65" stroke-width="1.5"></path><path d="M1288.99 83.79L1260.55 197.75" stroke="#132e65" stroke-width="1.5"></path><path d="M1288.99 83.79L1111.07 39.3" stroke="#132e65" stroke-width="1.5"></path><path d="M1260.55 197.75L1260.55 197.75" stroke="#132e65" stroke-width="1.5"></path><path d="M1260.55 197.75L1390.65 258.75" stroke="#132e65" stroke-width="1.5"></path><path d="M1260.55 197.75L1307.77 354.12" stroke="#132e65" stroke-width="1.5"></path><path d="M1260.55 197.75L1111.07 39.3" stroke="#132e65" stroke-width="1.5"></path><path d="M1260.55 197.75L1105.75 364.12" stroke="#132e65" stroke-width="1.5"></path><path d="M1307.77 354.12L1307.77 354.12" stroke="#132e65" stroke-width="1.5"></path><path d="M1307.77 354.12L1432.35 356.68" stroke="#132e65" stroke-width="1.5"></path><path d="M1307.77 354.12L1390.65 258.75" stroke="#132e65" stroke-width="1.5"></path><path d="M1292.6 527.67L1292.6 527.67" stroke="#132e65" stroke-width="1.5"></path><path d="M1292.6 527.67L1406.64 548.67" stroke="#132e65" stroke-width="1.5"></path><path d="M1292.6 527.67L1408.96 651.86" stroke="#132e65" stroke-width="1.5"></path><path d="M1292.6 527.67L1307.77 354.12" stroke="#132e65" stroke-width="1.5"></path><path d="M1262.57 704.62L1262.57 704.62" stroke="#132e65" stroke-width="1.5"></path><path d="M1262.57 704.62L1408.96 651.86" stroke="#132e65" stroke-width="1.5"></path><path d="M1443.9 -90.04L1443.9 -90.04" stroke="#132e65" stroke-width="1.5"></path><path d="M1443.9 -90.04L1563.11 -75.85" stroke="#132e65" stroke-width="1.5"></path><path d="M1443.9 -90.04L1582.65 89.03" stroke="#132e65" stroke-width="1.5"></path><path d="M1443.9 -90.04L1288.99 83.79" stroke="#132e65" stroke-width="1.5"></path><path d="M1443.9 -90.04L1573.71 225.14" stroke="#132e65" stroke-width="1.5"></path><path d="M1390.65 258.75L1390.65 258.75" stroke="#132e65" stroke-width="1.5"></path><path d="M1390.65 258.75L1432.35 356.68" stroke="#132e65" stroke-width="1.5"></path><path d="M1432.35 356.68L1432.35 356.68" stroke="#132e65" stroke-width="1.5"></path><path d="M1432.35 356.68L1612.13 354.99" stroke="#132e65" stroke-width="1.5"></path><path d="M1432.35 356.68L1573.71 225.14" stroke="#132e65" stroke-width="1.5"></path><path d="M1432.35 356.68L1406.64 548.67" stroke="#132e65" stroke-width="1.5"></path><path d="M1406.64 548.67L1406.64 548.67" stroke="#132e65" stroke-width="1.5"></path><path d="M1406.64 548.67L1408.96 651.86" stroke="#132e65" stroke-width="1.5"></path><path d="M1408.96 651.86L1408.96 651.86" stroke="#132e65" stroke-width="1.5"></path><path d="M1563.11 -75.85L1563.11 -75.85" stroke="#132e65" stroke-width="1.5"></path><path d="M1563.11 -75.85L1582.65 89.03" stroke="#132e65" stroke-width="1.5"></path><path d="M1563.11 -75.85L1573.71 225.14" stroke="#132e65" stroke-width="1.5"></path><path d="M1563.11 -75.85L1288.99 83.79" stroke="#132e65" stroke-width="1.5"></path><path d="M1582.65 89.03L1582.65 89.03" stroke="#132e65" stroke-width="1.5"></path><path d="M1582.65 89.03L1573.71 225.14" stroke="#132e65" stroke-width="1.5"></path><path d="M1582.65 89.03L1390.65 258.75" stroke="#132e65" stroke-width="1.5"></path><path d="M1573.71 225.14L1573.71 225.14" stroke="#132e65" stroke-width="1.5"></path><path d="M1573.71 225.14L1612.13 354.99" stroke="#132e65" stroke-width="1.5"></path><path d="M1612.13 354.99L1612.13 354.99" stroke="#132e65" stroke-width="1.5"></path><path d="M1612.13 354.99L1574.03 535.08" stroke="#132e65" stroke-width="1.5"></path><path d="M1612.13 354.99L1390.65 258.75" stroke="#132e65" stroke-width="1.5"></path><path d="M1612.13 354.99L1582.65 89.03" stroke="#132e65" stroke-width="1.5"></path><path d="M1612.13 354.99L1406.64 548.67" stroke="#132e65" stroke-width="1.5"></path><path d="M1574.03 535.08L1574.03 535.08" stroke="#132e65" stroke-width="1.5"></path><path d="M1574.03 535.08L1406.64 548.67" stroke="#132e65" stroke-width="1.5"></path><path d="M1574.03 535.08L1408.96 651.86" stroke="#132e65" stroke-width="1.5"></path><circle r="5" cx="-92.19" cy="404.48" fill="#132e65"></circle><circle r="5" cx="-38.65" cy="490.58" fill="#132e65"></circle><circle r="5" cx="-51.19" cy="657.25" fill="#132e65"></circle><circle r="5" cx="57.41" cy="377.64" fill="#132e65"></circle><circle r="5" cx="64.37" cy="531.35" fill="#132e65"></circle><circle r="5" cx="72.4" cy="690.59" fill="#132e65"></circle><circle r="5" cx="209.79" cy="382.57" fill="#132e65"></circle><circle r="5" cx="243.2" cy="510.96" fill="#132e65"></circle><circle r="5" cx="234.03" cy="668.99" fill="#132e65"></circle><circle r="5" cx="380.39" cy="408.9" fill="#132e65"></circle><circle r="5" cx="340.34" cy="550.5" fill="#132e65"></circle><circle r="5" cx="341.75" cy="696.66" fill="#132e65"></circle><circle r="5" cx="529.7" cy="402.62" fill="#132e65"></circle><circle r="5" cx="500.09" cy="491.49" fill="#132e65"></circle><circle r="5" cx="529" cy="662.31" fill="#132e65"></circle><circle r="5" cx="675.83" cy="236.28" fill="#132e65"></circle><circle r="5" cx="682.9" cy="348.74" fill="#132e65"></circle><circle r="5" cx="643.04" cy="502.53" fill="#132e65"></circle><circle r="5" cx="711.99" cy="659.77" fill="#132e65"></circle><circle r="5" cx="817.57" cy="219.46" fill="#132e65"></circle><circle r="5" cx="816.29" cy="364.67" fill="#132e65"></circle><circle r="5" cx="794.99" cy="662.75" fill="#132e65"></circle><circle r="5" cx="1005.15" cy="-78.37" fill="#132e65"></circle><circle r="5" cx="977.16" cy="256.83" fill="#132e65"></circle><circle r="5" cx="991.29" cy="345.22" fill="#132e65"></circle><circle r="5" cx="1006.92" cy="523.46" fill="#132e65"></circle><circle r="5" cx="981.36" cy="653.41" fill="#132e65"></circle><circle r="5" cx="1111.07" cy="39.3" fill="#132e65"></circle><circle r="5" cx="1122.67" cy="188.38" fill="#132e65"></circle><circle r="5" cx="1105.75" cy="364.12" fill="#132e65"></circle><circle r="5" cx="1117.44" cy="516.36" fill="#132e65"></circle><circle r="5" cx="1137.07" cy="644.8" fill="#132e65"></circle><circle r="5" cx="1288.99" cy="83.79" fill="#132e65"></circle><circle r="5" cx="1260.55" cy="197.75" fill="#132e65"></circle><circle r="5" cx="1307.77" cy="354.12" fill="#132e65"></circle><circle r="5" cx="1292.6" cy="527.67" fill="#132e65"></circle><circle r="5" cx="1262.57" cy="704.62" fill="#132e65"></circle><circle r="5" cx="1443.9" cy="-90.04" fill="#132e65"></circle><circle r="5" cx="1390.65" cy="258.75" fill="#132e65"></circle><circle r="5" cx="1432.35" cy="356.68" fill="#132e65"></circle><circle r="5" cx="1406.64" cy="548.67" fill="#132e65"></circle><circle r="5" cx="1408.96" cy="651.86" fill="#132e65"></circle><circle r="5" cx="1563.11" cy="-75.85" fill="#132e65"></circle><circle r="5" cx="1582.65" cy="89.03" fill="#132e65"></circle><circle r="5" cx="1573.71" cy="225.14" fill="#132e65"></circle><circle r="5" cx="1612.13" cy="354.99" fill="#132e65"></circle><circle r="5" cx="1574.03" cy="535.08" fill="#132e65"></circle><path d="M666.42 400.69L666.42 400.69" stroke="hsl(228.5, 77.2%, 51.5%)" stroke-width="1.5"></path><path d="M666.42 400.69L638.73 519.31" stroke="hsl(228.5, 77.2%, 51.5%)" stroke-width="1.5"></path><path d="M666.42 400.69L831.29 368.56" stroke="hsl(228.5, 77.2%, 51.5%)" stroke-width="1.5"></path><path d="M666.42 400.69L531.97 520.98" stroke="hsl(228.5, 77.2%, 51.5%)" stroke-width="1.5"></path><path d="M666.42 400.69L824.24 515.26" stroke="hsl(228.5, 77.2%, 51.5%)" stroke-width="1.5"></path><path d="M690.17 676.86L690.17 676.86" stroke="hsl(228.5, 77.2%, 51.5%)" stroke-width="1.5"></path><path d="M690.17 676.86L534.46 665.74" stroke="hsl(228.5, 77.2%, 51.5%)" stroke-width="1.5"></path><path d="M690.17 676.86L851.2 700.75" stroke="hsl(228.5, 77.2%, 51.5%)" stroke-width="1.5"></path><path d="M690.17 676.86L638.73 519.31" stroke="hsl(228.5, 77.2%, 51.5%)" stroke-width="1.5"></path><path d="M690.17 676.86L824.24 515.26" stroke="hsl(228.5, 77.2%, 51.5%)" stroke-width="1.5"></path><path d="M950.84 373.64L950.84 373.64" stroke="hsl(228.5, 77.2%, 51.5%)" stroke-width="1.5"></path><path d="M950.84 373.64L831.29 368.56" stroke="hsl(228.5, 77.2%, 51.5%)" stroke-width="1.5"></path><path d="M950.84 373.64L1010.76 498.54" stroke="hsl(228.5, 77.2%, 51.5%)" stroke-width="1.5"></path><path d="M950.84 373.64L988.43 234.95" stroke="hsl(228.5, 77.2%, 51.5%)" stroke-width="1.5"></path><path d="M950.84 373.64L1136.1 369.13" stroke="hsl(228.5, 77.2%, 51.5%)" stroke-width="1.5"></path><path d="M950.84 373.64L824.24 515.26" stroke="hsl(228.5, 77.2%, 51.5%)" stroke-width="1.5"></path><path d="M950.84 373.64L1122.09 511.63" stroke="hsl(228.5, 77.2%, 51.5%)" stroke-width="1.5"></path><path d="M1117 707.96L1117 707.96" stroke="hsl(228.5, 77.2%, 51.5%)" stroke-width="1.5"></path><path d="M1117 707.96L997.33 709.63" stroke="hsl(228.5, 77.2%, 51.5%)" stroke-width="1.5"></path><path d="M1117 707.96L1122.09 511.63" stroke="hsl(228.5, 77.2%, 51.5%)" stroke-width="1.5"></path><path d="M1394.31 708.12L1394.31 708.12" stroke="hsl(228.5, 77.2%, 51.5%)" stroke-width="1.5"></path><path d="M1394.31 708.12L1560.51 699.31" stroke="hsl(228.5, 77.2%, 51.5%)" stroke-width="1.5"></path><path d="M1394.31 708.12L1444.38 499.51" stroke="hsl(228.5, 77.2%, 51.5%)" stroke-width="1.5"></path><path d="M1394.31 708.12L1247.25 550.54" stroke="hsl(228.5, 77.2%, 51.5%)" stroke-width="1.5"></path><path d="M1567.33 -54.18L1567.33 -54.18" stroke="hsl(228.5, 77.2%, 51.5%)" stroke-width="1.5"></path><path d="M1567.33 -54.18L1594.16 57.43" stroke="hsl(228.5, 77.2%, 51.5%)" stroke-width="1.5"></path><path d="M1567.33 -54.18L1429.62 78.54" stroke="hsl(228.5, 77.2%, 51.5%)" stroke-width="1.5"></path><path d="M1567.33 -54.18L1274.08 -90.42" stroke="hsl(228.5, 77.2%, 51.5%)" stroke-width="1.5"></path><path d="M1567.33 -54.18L1576.12 256.65" stroke="hsl(228.5, 77.2%, 51.5%)" stroke-width="1.5"></path><path d="M1567.33 -54.18L1422.28 234.02" stroke="hsl(228.5, 77.2%, 51.5%)" stroke-width="1.5"></path><path d="M1560.51 699.31L1560.51 699.31" stroke="hsl(228.5, 77.2%, 51.5%)" stroke-width="1.5"></path><path d="M1560.51 699.31L1603.02 543.15" stroke="hsl(228.5, 77.2%, 51.5%)" stroke-width="1.5"></path><path d="M-60.24 515.33L-60.24 515.33" stroke="hsl(228.5, 77.2%, 51.5%)" stroke-width="1.5"></path><path d="M-60.24 515.33L-81.53 648.93" stroke="hsl(228.5, 77.2%, 51.5%)" stroke-width="1.5"></path><path d="M-60.24 515.33L73.74 553.4" stroke="hsl(228.5, 77.2%, 51.5%)" stroke-width="1.5"></path><path d="M-81.53 648.93L-81.53 648.93" stroke="hsl(228.5, 77.2%, 51.5%)" stroke-width="1.5"></path><path d="M-81.53 648.93L72.52 688.87" stroke="hsl(228.5, 77.2%, 51.5%)" stroke-width="1.5"></path><path d="M-81.53 648.93L73.74 553.4" stroke="hsl(228.5, 77.2%, 51.5%)" stroke-width="1.5"></path><path d="M-81.53 648.93L219.2 553.41" stroke="hsl(228.5, 77.2%, 51.5%)" stroke-width="1.5"></path><path d="M73.74 553.4L73.74 553.4" stroke="hsl(228.5, 77.2%, 51.5%)" stroke-width="1.5"></path><path d="M73.74 553.4L72.52 688.87" stroke="hsl(228.5, 77.2%, 51.5%)" stroke-width="1.5"></path><path d="M73.74 553.4L219.2 553.41" stroke="hsl(228.5, 77.2%, 51.5%)" stroke-width="1.5"></path><path d="M72.52 688.87L72.52 688.87" stroke="hsl(228.5, 77.2%, 51.5%)" stroke-width="1.5"></path><path d="M72.52 688.87L235.03 698.71" stroke="hsl(228.5, 77.2%, 51.5%)" stroke-width="1.5"></path><path d="M72.52 688.87L219.2 553.41" stroke="hsl(228.5, 77.2%, 51.5%)" stroke-width="1.5"></path><path d="M219.2 553.41L219.2 553.41" stroke="hsl(228.5, 77.2%, 51.5%)" stroke-width="1.5"></path><path d="M235.03 698.71L235.03 698.71" stroke="hsl(228.5, 77.2%, 51.5%)" stroke-width="1.5"></path><path d="M235.03 698.71L219.2 553.41" stroke="hsl(228.5, 77.2%, 51.5%)" stroke-width="1.5"></path><path d="M235.03 698.71L73.74 553.4" stroke="hsl(228.5, 77.2%, 51.5%)" stroke-width="1.5"></path><path d="M235.03 698.71L411.26 557.56" stroke="hsl(228.5, 77.2%, 51.5%)" stroke-width="1.5"></path><path d="M411.26 557.56L411.26 557.56" stroke="hsl(228.5, 77.2%, 51.5%)" stroke-width="1.5"></path><path d="M411.26 557.56L531.97 520.98" stroke="hsl(228.5, 77.2%, 51.5%)" stroke-width="1.5"></path><path d="M411.26 557.56L534.46 665.74" stroke="hsl(228.5, 77.2%, 51.5%)" stroke-width="1.5"></path><path d="M531.97 520.98L531.97 520.98" stroke="hsl(228.5, 77.2%, 51.5%)" stroke-width="1.5"></path><path d="M531.97 520.98L638.73 519.31" stroke="hsl(228.5, 77.2%, 51.5%)" stroke-width="1.5"></path><path d="M531.97 520.98L534.46 665.74" stroke="hsl(228.5, 77.2%, 51.5%)" stroke-width="1.5"></path><path d="M534.46 665.74L534.46 665.74" stroke="hsl(228.5, 77.2%, 51.5%)" stroke-width="1.5"></path><path d="M638.73 519.31L638.73 519.31" stroke="hsl(228.5, 77.2%, 51.5%)" stroke-width="1.5"></path><path d="M831.29 368.56L831.29 368.56" stroke="hsl(228.5, 77.2%, 51.5%)" stroke-width="1.5"></path><path d="M831.29 368.56L824.24 515.26" stroke="hsl(228.5, 77.2%, 51.5%)" stroke-width="1.5"></path><path d="M831.29 368.56L988.43 234.95" stroke="hsl(228.5, 77.2%, 51.5%)" stroke-width="1.5"></path><path d="M831.29 368.56L1010.76 498.54" stroke="hsl(228.5, 77.2%, 51.5%)" stroke-width="1.5"></path><path d="M831.29 368.56L638.73 519.31" stroke="hsl(228.5, 77.2%, 51.5%)" stroke-width="1.5"></path><path d="M824.24 515.26L824.24 515.26" stroke="hsl(228.5, 77.2%, 51.5%)" stroke-width="1.5"></path><path d="M824.24 515.26L638.73 519.31" stroke="hsl(228.5, 77.2%, 51.5%)" stroke-width="1.5"></path><path d="M851.2 700.75L851.2 700.75" stroke="hsl(228.5, 77.2%, 51.5%)" stroke-width="1.5"></path><path d="M851.2 700.75L997.33 709.63" stroke="hsl(228.5, 77.2%, 51.5%)" stroke-width="1.5"></path><path d="M851.2 700.75L824.24 515.26" stroke="hsl(228.5, 77.2%, 51.5%)" stroke-width="1.5"></path><path d="M988.43 234.95L988.43 234.95" stroke="hsl(228.5, 77.2%, 51.5%)" stroke-width="1.5"></path><path d="M988.43 234.95L1158.98 210.98" stroke="hsl(228.5, 77.2%, 51.5%)" stroke-width="1.5"></path><path d="M988.43 234.95L1136.1 369.13" stroke="hsl(228.5, 77.2%, 51.5%)" stroke-width="1.5"></path><path d="M988.43 234.95L1157.92 50.84" stroke="hsl(228.5, 77.2%, 51.5%)" stroke-width="1.5"></path><path d="M1010.76 498.54L1010.76 498.54" stroke="hsl(228.5, 77.2%, 51.5%)" stroke-width="1.5"></path><path d="M1010.76 498.54L1122.09 511.63" stroke="hsl(228.5, 77.2%, 51.5%)" stroke-width="1.5"></path><path d="M1010.76 498.54L1136.1 369.13" stroke="hsl(228.5, 77.2%, 51.5%)" stroke-width="1.5"></path><path d="M1010.76 498.54L824.24 515.26" stroke="hsl(228.5, 77.2%, 51.5%)" stroke-width="1.5"></path><path d="M1010.76 498.54L997.33 709.63" stroke="hsl(228.5, 77.2%, 51.5%)" stroke-width="1.5"></path><path d="M997.33 709.63L997.33 709.63" stroke="hsl(228.5, 77.2%, 51.5%)" stroke-width="1.5"></path><path d="M1157.92 50.84L1157.92 50.84" stroke="hsl(228.5, 77.2%, 51.5%)" stroke-width="1.5"></path><path d="M1157.92 50.84L1245.2 79.72" stroke="hsl(228.5, 77.2%, 51.5%)" stroke-width="1.5"></path><path d="M1157.92 50.84L1158.98 210.98" stroke="hsl(228.5, 77.2%, 51.5%)" stroke-width="1.5"></path><path d="M1157.92 50.84L1274.08 -90.42" stroke="hsl(228.5, 77.2%, 51.5%)" stroke-width="1.5"></path><path d="M1158.98 210.98L1158.98 210.98" stroke="hsl(228.5, 77.2%, 51.5%)" stroke-width="1.5"></path><path d="M1158.98 210.98L1245.2 79.72" stroke="hsl(228.5, 77.2%, 51.5%)" stroke-width="1.5"></path><path d="M1158.98 210.98L1136.1 369.13" stroke="hsl(228.5, 77.2%, 51.5%)" stroke-width="1.5"></path><path d="M1136.1 369.13L1136.1 369.13" stroke="hsl(228.5, 77.2%, 51.5%)" stroke-width="1.5"></path><path d="M1136.1 369.13L1243.41 353.28" stroke="hsl(228.5, 77.2%, 51.5%)" stroke-width="1.5"></path><path d="M1136.1 369.13L1122.09 511.63" stroke="hsl(228.5, 77.2%, 51.5%)" stroke-width="1.5"></path><path d="M1122.09 511.63L1122.09 511.63" stroke="hsl(228.5, 77.2%, 51.5%)" stroke-width="1.5"></path><path d="M1274.08 -90.42L1274.08 -90.42" stroke="hsl(228.5, 77.2%, 51.5%)" stroke-width="1.5"></path><path d="M1274.08 -90.42L1245.2 79.72" stroke="hsl(228.5, 77.2%, 51.5%)" stroke-width="1.5"></path><path d="M1245.2 79.72L1245.2 79.72" stroke="hsl(228.5, 77.2%, 51.5%)" stroke-width="1.5"></path><path d="M1245.2 79.72L1429.62 78.54" stroke="hsl(228.5, 77.2%, 51.5%)" stroke-width="1.5"></path><path d="M1245.2 79.72L1422.28 234.02" stroke="hsl(228.5, 77.2%, 51.5%)" stroke-width="1.5"></path><path d="M1243.41 353.28L1243.41 353.28" stroke="hsl(228.5, 77.2%, 51.5%)" stroke-width="1.5"></path><path d="M1243.41 353.28L1408 338.94" stroke="hsl(228.5, 77.2%, 51.5%)" stroke-width="1.5"></path><path d="M1247.25 550.54L1247.25 550.54" stroke="hsl(228.5, 77.2%, 51.5%)" stroke-width="1.5"></path><path d="M1247.25 550.54L1122.09 511.63" stroke="hsl(228.5, 77.2%, 51.5%)" stroke-width="1.5"></path><path d="M1247.25 550.54L1243.41 353.28" stroke="hsl(228.5, 77.2%, 51.5%)" stroke-width="1.5"></path><path d="M1247.25 550.54L1444.38 499.51" stroke="hsl(228.5, 77.2%, 51.5%)" stroke-width="1.5"></path><path d="M1247.25 550.54L1117 707.96" stroke="hsl(228.5, 77.2%, 51.5%)" stroke-width="1.5"></path><path d="M1247.25 550.54L1136.1 369.13" stroke="hsl(228.5, 77.2%, 51.5%)" stroke-width="1.5"></path><path d="M1429.62 78.54L1429.62 78.54" stroke="hsl(228.5, 77.2%, 51.5%)" stroke-width="1.5"></path><path d="M1429.62 78.54L1422.28 234.02" stroke="hsl(228.5, 77.2%, 51.5%)" stroke-width="1.5"></path><path d="M1429.62 78.54L1594.16 57.43" stroke="hsl(228.5, 77.2%, 51.5%)" stroke-width="1.5"></path><path d="M1429.62 78.54L1274.08 -90.42" stroke="hsl(228.5, 77.2%, 51.5%)" stroke-width="1.5"></path><path d="M1429.62 78.54L1576.12 256.65" stroke="hsl(228.5, 77.2%, 51.5%)" stroke-width="1.5"></path><path d="M1422.28 234.02L1422.28 234.02" stroke="hsl(228.5, 77.2%, 51.5%)" stroke-width="1.5"></path><path d="M1422.28 234.02L1408 338.94" stroke="hsl(228.5, 77.2%, 51.5%)" stroke-width="1.5"></path><path d="M1422.28 234.02L1576.12 256.65" stroke="hsl(228.5, 77.2%, 51.5%)" stroke-width="1.5"></path><path d="M1408 338.94L1408 338.94" stroke="hsl(228.5, 77.2%, 51.5%)" stroke-width="1.5"></path><path d="M1408 338.94L1550.55 366.26" stroke="hsl(228.5, 77.2%, 51.5%)" stroke-width="1.5"></path><path d="M1408 338.94L1444.38 499.51" stroke="hsl(228.5, 77.2%, 51.5%)" stroke-width="1.5"></path><path d="M1408 338.94L1576.12 256.65" stroke="hsl(228.5, 77.2%, 51.5%)" stroke-width="1.5"></path><path d="M1408 338.94L1429.62 78.54" stroke="hsl(228.5, 77.2%, 51.5%)" stroke-width="1.5"></path><path d="M1444.38 499.51L1444.38 499.51" stroke="hsl(228.5, 77.2%, 51.5%)" stroke-width="1.5"></path><path d="M1444.38 499.51L1603.02 543.15" stroke="hsl(228.5, 77.2%, 51.5%)" stroke-width="1.5"></path><path d="M1444.38 499.51L1550.55 366.26" stroke="hsl(228.5, 77.2%, 51.5%)" stroke-width="1.5"></path><path d="M1444.38 499.51L1560.51 699.31" stroke="hsl(228.5, 77.2%, 51.5%)" stroke-width="1.5"></path><path d="M1594.16 57.43L1594.16 57.43" stroke="hsl(228.5, 77.2%, 51.5%)" stroke-width="1.5"></path><path d="M1576.12 256.65L1576.12 256.65" stroke="hsl(228.5, 77.2%, 51.5%)" stroke-width="1.5"></path><path d="M1576.12 256.65L1550.55 366.26" stroke="hsl(228.5, 77.2%, 51.5%)" stroke-width="1.5"></path><path d="M1576.12 256.65L1594.16 57.43" stroke="hsl(228.5, 77.2%, 51.5%)" stroke-width="1.5"></path><path d="M1550.55 366.26L1550.55 366.26" stroke="hsl(228.5, 77.2%, 51.5%)" stroke-width="1.5"></path><path d="M1603.02 543.15L1603.02 543.15" stroke="hsl(228.5, 77.2%, 51.5%)" stroke-width="1.5"></path><path d="M1603.02 543.15L1550.55 366.26" stroke="hsl(228.5, 77.2%, 51.5%)" stroke-width="1.5"></path><path d="M1603.02 543.15L1394.31 708.12" stroke="hsl(228.5, 77.2%, 51.5%)" stroke-width="1.5"></path><path d="M1603.02 543.15L1408 338.94" stroke="hsl(228.5, 77.2%, 51.5%)" stroke-width="1.5"></path><path d="M1603.02 543.15L1576.12 256.65" stroke="hsl(228.5, 77.2%, 51.5%)" stroke-width="1.5"></path><circle r="25" cx="666.42" cy="400.69" fill="url(&quot;#SvgjsRadialGradient1001&quot;)"></circle><circle r="25" cx="690.17" cy="676.86" fill="url(&quot;#SvgjsRadialGradient1001&quot;)"></circle><circle r="25" cx="950.84" cy="373.64" fill="url(&quot;#SvgjsRadialGradient1001&quot;)"></circle><circle r="25" cx="1117" cy="707.96" fill="url(&quot;#SvgjsRadialGradient1001&quot;)"></circle><circle r="25" cx="1394.31" cy="708.12" fill="url(&quot;#SvgjsRadialGradient1001&quot;)"></circle><circle r="25" cx="1567.33" cy="-54.18" fill="url(&quot;#SvgjsRadialGradient1001&quot;)"></circle><circle r="25" cx="1560.51" cy="699.31" fill="url(&quot;#SvgjsRadialGradient1001&quot;)"></circle><circle r="5" cx="-60.24" cy="515.33" fill="#8b9ad9"></circle><circle r="5" cx="-81.53" cy="648.93" fill="#8b9ad9"></circle><circle r="5" cx="73.74" cy="553.4" fill="#8b9ad9"></circle><circle r="5" cx="72.52" cy="688.87" fill="#8b9ad9"></circle><circle r="5" cx="219.2" cy="553.41" fill="#8b9ad9"></circle><circle r="5" cx="235.03" cy="698.71" fill="#8b9ad9"></circle><circle r="5" cx="411.26" cy="557.56" fill="#8b9ad9"></circle><circle r="5" cx="531.97" cy="520.98" fill="#8b9ad9"></circle><circle r="5" cx="534.46" cy="665.74" fill="#8b9ad9"></circle><circle r="5" cx="638.73" cy="519.31" fill="#8b9ad9"></circle><circle r="5" cx="831.29" cy="368.56" fill="#8b9ad9"></circle><circle r="5" cx="824.24" cy="515.26" fill="#8b9ad9"></circle><circle r="5" cx="851.2" cy="700.75" fill="#8b9ad9"></circle><circle r="5" cx="988.43" cy="234.95" fill="#8b9ad9"></circle><circle r="5" cx="1010.76" cy="498.54" fill="#8b9ad9"></circle><circle r="5" cx="997.33" cy="709.63" fill="#8b9ad9"></circle><circle r="5" cx="1157.92" cy="50.84" fill="#8b9ad9"></circle><circle r="5" cx="1158.98" cy="210.98" fill="#8b9ad9"></circle><circle r="5" cx="1136.1" cy="369.13" fill="#8b9ad9"></circle><circle r="5" cx="1122.09" cy="511.63" fill="#8b9ad9"></circle><circle r="5" cx="1274.08" cy="-90.42" fill="#8b9ad9"></circle><circle r="5" cx="1245.2" cy="79.72" fill="#8b9ad9"></circle><circle r="5" cx="1243.41" cy="353.28" fill="#8b9ad9"></circle><circle r="5" cx="1247.25" cy="550.54" fill="#8b9ad9"></circle><circle r="5" cx="1429.62" cy="78.54" fill="#8b9ad9"></circle><circle r="5" cx="1422.28" cy="234.02" fill="#8b9ad9"></circle><circle r="5" cx="1408" cy="338.94" fill="#8b9ad9"></circle><circle r="5" cx="1444.38" cy="499.51" fill="#8b9ad9"></circle><circle r="5" cx="1594.16" cy="57.43" fill="#8b9ad9"></circle><circle r="5" cx="1576.12" cy="256.65" fill="#8b9ad9"></circle><circle r="5" cx="1550.55" cy="366.26" fill="#8b9ad9"></circle><circle r="5" cx="1603.02" cy="543.15" fill="#8b9ad9"></circle></g><defs><mask id="SvgjsMask1000"><rect width="1440" height="560" fill="#ffffff"></rect></mask><radialGradient id="SvgjsRadialGradient1001"><stop stop-color="#ffffff" offset="0.1"></stop><stop stop-color="#1735b3" offset="0.2"></stop><stop stop-color="rgba(23, 53, 179, 0)" offset="1"></stop></radialGradient></defs></svg>